# xmcd
#
# Track frame offsets: 
#        150
#        12426
#        26956
#        42519
#        53970
#        70198
#        87721
#        101718
#        116596
#        130982
#        148005
#        165298
#
# Disc length: 2400 seconds
#
# Revision: 0
# Processed by: cddbd v1.5.1PL2 Copyright (c) Steve Scherf et al.
# Submitted via: ExactAudioCopy v0.90b3
#
DISCID=ae095e0c
DTITLE=Silverwood - My Side of Town
DYEAR=2004
DGENRE=Country
TTITLE0=My Side of Town
TTITLE1=Pocket Kisses
TTITLE2=Monday Morning At The Bus Stop
TTITLE3=Good Morning My Love
TTITLE4=Jealous Heart
TTITLE5=Pages
TTITLE6=Where Did All The Bluegrass Go
TTITLE7=Billy and Willy
TTITLE8=You Won't Turn To Me
TTITLE9=Crazy Little Love Song
TTITLE10=Your Love Gets Me Going
TTITLE11=Lover's Little Secrets
EXTD=
EXTT0=
EXTT1=
EXTT2=
EXTT3=
EXTT4=
EXTT5=
EXTT6=
EXTT7=
EXTT8=
EXTT9=
EXTT10=
EXTT11=
PLAYORDER=
